<?xml version="1.0" encoding="UTF-8"?>
<svg id="Layer_2" data-name="Layer 2" xmlns="http://www.w3.org/2000/svg" viewBox="0 0 232.63 232.63">
  <defs>
    <style>
      .cls-1 {
        fill: #fff;
      }
    </style>
  </defs>
  <g id="Layer_1-2" data-name="Layer 1">
    <g>
      <circle class="cls-1" cx="116.31" cy="116.31" r="116.31"/>
      <g id="NcQbJv.tif">
        <g>
          <path d="M153.34,183.4H62.51c-1.69-.58-1.35-4.24.14-4.24h57.02c-6.04-6.63-12.97-12.47-18.74-19.33l-10.58-27.36c-.56-2.57,2.85-4.01,4.19-1.62l10.57,27.35,20.79,20.81,25.3.12c2.88-.39,2.48-2.09,2.43-4.5h-10.61c-.08,0-1.07-1-1.12-1.14-.71-1.64.55-3.39,2.26-3.39h8.91c-3.29-6.84-13.16-3.51-19.39-4.24-2.89-.34-2.78-4.07.31-4.51.87-.12,1.79.03,2.66-.03-2.5-3.91-3.87-8.42-4.54-13-2.16-.31-7.22,1.16-7.08-2.41.12-3.08,5.04-1.88,7.06-2.17l1.17-4.21h-4.39c-.25,0-1.39-.96-1.5-1.33-1.24-4.13,4.65-3.1,6.99-3.22l.88-4.22h-4.39c-.3,0-1.36-1.48-1.44-1.97-.57-3.47,5.29-2.44,7.23-2.58l.86-4.23h-4.39c-1.36,0-2.7-4.05.58-4.51,1.05-.15,4.41.23,4.95-.14.27-1.17,1.67-4.91,1.26-5.81-.15-.32-4.42-4.56-4.95-4.97-3.49-2.69-6.96.78-10.6.72-5.34-.09-10.11-5.54-9.42-10.83.24-1.85,1.56-3.58,1.64-5.44.03-.66-.26-3.59-1.24-3.51l-8.36,4.38c4.39,12.01,3.44,25.57-2.75,36.76l9.66,25.03c2.63,1.91,14.94,16.08,16.69,16.42s7.47-.77,6.24,3.13c-.77,2.43-5.57,1.11-7.6,1.34-6.66-6.06-13.14-12.33-19.4-18.8l-20.84-54.15c-.33-.48-.41-.13-.71.13-5.56,4.89,1.56,14.78,2.92,20.29.76,3.07-1.29,4.41-3.73,2.6-1.98-6-6.35-12.73-5.69-19.2.39-3.85,3.11-7.3,6.32-9.25,8.21-5,18.39-8.53,26.8-13.39,1.67-1.38,3.78,1.34,4.59,1.23.95-.13,4.78-2.97,5.59-3.77,1.21-1.2,2.31-2.92,3.34-4.3,8.75-11.78,16.58-24.31,25.24-36.16,1.36-2.37,5.12-1.32,4.34,1.49-.18.64-.8,1.38-1.17,1.96-8.35,13.14-18.59,25.69-27.24,38.7-1.24,1.32-2.51,2.58-3.98,3.66-.81.59-4.51,2.49-4.66,2.72-.12.2.19,2.47.12,3.22-.3,3.54-3.57,6.69.02,9.95,3.12,2.83,6.05-.03,9.24-.41,5.65-.67,8.03,2.2,11.57,5.91.38,0,2.89-5.77,3.54-6.64,2.45-3.31,12.06-12.67,15.42-15.43,3.14-2.58,5.83-.1,3.83,2.7-3.77,5.28-11.91,10.53-15.85,15.84-7.3,9.85-8.19,30.82-12.67,42.51.77,5.76,2.59,13.87,9.21,15.28,2.55.54,4.14.2,6.66,1.55,5.29,2.82,6.59,8.36,6.15,13.96-.26,3.28-1.76,5.43-4.82,6.64ZM102.12,122.85c3.88-9.35,3.99-19.57.85-29.14l-10.15,5.26,9.3,23.88Z"/>
          <path d="M43.83,138.41v-2.26c.69-.57,1.22-.97,2.15-1.11,1.45-.21,8.48-.2,9.62.24,1.83.71,1.66,3.47.12,4.12-.58.24-9.4.32-10.32.14-.72-.14-.95-.84-1.56-1.13Z"/>
          <path d="M55.72,183.4h-11.88v-3.11c.46-.6.79-.99,1.57-1.11,1.33-.22,8.91-.23,10.11.04,1.85.42,1.77,3.35.2,4.18Z"/>
          <path d="M186.38,60.37c1.94-.19,3.01,1.85,2.07,3.49l-17.14,17.1c-1.96,1.69-4.89-.39-3.55-2.7l17.26-17.26c.36-.3.89-.59,1.35-.64Z"/>
          <path d="M63.28,135.08c5.17-.92,12.61.54,18.03-.05,2.52.4,2.81,3.95.28,4.49h-18.36c-2.56-.4-2.58-3.97.05-4.44Z"/>
          <path d="M80.54,157.15l14.07-.04c2.59.41,2.65,4.07-.29,4.49-2.46.34-10.78.34-13.25,0-2.72-.38-2.97-3.49-.53-4.44Z"/>
          <path d="M74.03,157.73c1.18,1.4.32,3.58-1.49,3.86-1.62.26-7.35.22-9.01,0-2.94-.41-2.88-4.07-.29-4.49,1.65-.26,7.62-.24,9.33-.03.44.05,1.19.34,1.46.66Z"/>
        </g>
      </g>
    </g>
  </g>
</svg>