<?xml version="1.0" encoding="UTF-8"?>
<svg id="Layer_2" data-name="Layer 2" xmlns="http://www.w3.org/2000/svg" viewBox="0 0 232.63 232.63">
  <defs>
    <style>
      .cls-1 {
        fill: #fff;
      }
    </style>
  </defs>
  <g id="Layer_1-2" data-name="Layer 1">
    <g>
      <circle class="cls-1" cx="116.31" cy="116.31" r="116.31"/>
      <g id="ukOu60.tif">
        <g>
          <g>
            <path d="M149.76,53.71l9.15,2.69c.71.66.72,2.09-.32,2.39-1.58.45-7.51-2.27-9.55-2.34l-29.75,8.42,30.01,8.16,29.42-8.16-10.95-3.29c-1.11-1.27-.31-2.8,1.37-2.37l15.09,4.24c.6.18.85.66.85,1.27-.44,5.62.54,11.99,0,17.52-.37,3.83-4.62,5.59-7.71,3.15-.55-.44-1.66-1.93-1.66-2.56v-14.33l-5.45,1.38c.46,4.72-.57,10.43.04,15.03.2,1.54,1.21,3.68,1.58,5.36,2.21,9.81,2.52,23.39-10.66,24.08.46,5.33,2.92,9.72,4.8,14.58,1.49,1.02,6.28.27,6.61,2.23.54,3.24-6.01-.15-7.48.85-5.14,3.76-10.28,7.6-14.01,12.83-.61.86-1.09,3.06-2.76,1.81-.36-.27-2.03-3.16-2.69-3.95-3.56-4.23-8.53-7.76-12.96-11.03-3.81.92-16.56,2.38-19.01,5.02-1.75,1.89-2.18,7.45-2.88,9.93,3.44,1.47,9.16,2.57,11.03,6.02,1.08,1.99,1.64,4.69,1.96,6.93l19.44.02c1.77.34.99,2.71,0,2.71h-18.86c.59,5.05,1.1,10.14,1.2,15.22.02.32-.59,1.06-.75,1.06h-25.65c-1.18,0-.65-2.71.3-2.71h9.2c.54-2.02-.91-8.44.02-9.78.64-.92,2.22-.46,2.32.64l.38,9.14h11.47c-.45-4.63-.8-19.88-4.07-22.93-1.36-1.27-9.25-4.21-11.32-4.67-1.69-.38-5.77-.83-7.33-.39-.55.16-4.1,2.97-4.88,3.57-3.06,2.37-6.7,5.39-9.04,8.46-.55.72-1.37,2.59-1.84,2.99-1.76,1.47-2.68-1.55-3.47-2.56-3.75-4.78-8.81-8.41-13.66-11.99-1.67-.74-7.66,1.86-8.7.56-.53-.67-.44-1.69.4-2.07,1.68-.76,5.29-.56,6.96-1.18.23-.08.38-.2.48-.42,2.13-4.73,4.21-8.94,4.82-14.18.14-1.19-.07-2.37.33-3.57-4.13-6.31-8.11-15.25-7.55-22.94.03-.38.36-1.01.31-1.04-.29-.21-1.81.22-2.11-1.37v-15.63s-5.44-1.71-5.44-1.71v14.63c0,.13-1.18,2.04-1.44,2.27-2.95,2.64-7.55.9-7.93-3.16-.53-5.64.42-12.08.01-17.81.09-.8.95-.92,1.58-1.14,10.99-3.81,23.33-5.92,34.48-9.51l35.47,10.03c.87.62.65,1.76-.24,2.22l-14.13,3.97c-.54.77.15,13.63-.21,16.08s-1.85,4.74-2.49,6.86c-.95,3.13-1.36,6.24-2.64,9.43-1.79,4.48-4.2,5.99-3.85,11.23.38,5.59,2.77,10.15,4.87,15.18,2.74.03,5.42.01,8.1.66.96-5.04.95-10.33,6.26-12.6s11.91-2.87,17.52-4.05c1.86-4.85,4.43-9.26,4.81-14.58-.06-.3-3.22-.91-4.05-1.28-1.88-.84-6.85-5.45-5.25-7.47,1.48-1.88,2.87,2.09,3.66,3.03,1.58,1.9,3.87,2.86,6.33,2.87-.56-1.32-1.55-2.41-2.17-3.71-1.51-3.17-2.44-7.72-2.66-11.22-.09-1.42.25-8.37-.13-8.91-.32-.45-1.44-.28-1.97-.27l-1.98,9.03c-3.22,1.76-2.21-2.38-1.87-4.28.6-3.35,1.13-3.99,1.11-7.62-.04-4.88.17-9.78-.13-14.65l-13.61-3.89c-1.4-.53-1.68-1.97-.21-2.66l34.47-9.72h1.21ZM182.65,82.21v-15.83l-4.05,1.17c-.32,4.95-.23,10.12-.05,15.14.8,1.88,3.72,1.26,4.09-.48ZM167.56,70.6l-18.53,5.1-18.28-5.1v14.17c12.25,2.41,24.56,2.41,36.81,0v-14.17ZM112.95,80.85l-29.41-8.1-29.73,8.25,29.43,8.31c9.38-2.58,18.9-4.87,28.2-7.7.41-.13,1.44-.27,1.51-.75ZM49.89,82.96v15.53c0,1.59,3.42,2.47,4.17.54l.08-14.99-4.24-1.09ZM101.79,87.18l-18.25,4.85-18.56-4.85v13.87c2.75.67,5.8.75,8.52,1.29.59.12,1.62.28,1.9.82.23.44.08,1.72-.37,1.82-2.28.54-5.86-.88-8.25-.92v5.28c0,1.06,1.57,5.72,2.03,7.02,6.67,18.62,20.6,20.39,28.07,1.05.78-2.02,2.47-6.98,2.48-8.98,0-.66-.55-3.87-1.09-4.05-.5-.16-5.22.79-6.3.88-1.83.16-4.96.53-6.65.32-1.89-.24-1.93-2.41.03-2.71s4.97-.08,7.22-.32c3.09-.33,6.15-.99,9.2-1.51v-13.87ZM161.53,111.61c7.29-.12,9.36-7.27,9.05-13.41-.07-1.47-1.61-10.74-2.58-10.97-.15-.03-1.63.28-1.66.43-.46,2.64.22,6.98.02,9.93-.34,4.96-1.94,9.99-4.82,14.02ZM135.58,88.09v10.41c0,1.15,1.2,5.52,1.66,6.78,2.96,8.04,11.4,11.91,19.06,7.29s8.1-16.54,7.34-24.48c-9.3,1.4-18.79,1.71-28.06,0ZM158.81,114.03c-4.2,3.03-8.74,4.07-13.74,2.42-1.08-.35-4.48-2.38-4.97-2.29-.22.04-.54.12-.61.38-.21.82-.94,5.91-.77,6.44.66,2.12,7.45,6.21,9.59,6.72,1.67.4,5.48-1.61,6.98-2.57.79-.51,3.96-3.2,4.27-3.87.66-1.43-1.17-5.42-.75-7.23ZM148.86,142.68c.48.33,2.54-2.69,3-3.17,3.41-3.55,7.61-6.67,11.64-9.49.48-.77-2.18-5.09-2.28-6.33-2.5,2.38-5.34,4.43-8.54,5.78-.85.36-2.54,1.16-3.37,1.16-1.25,0-4.86-1.69-6.09-2.37l-6.13-4.27-2.4,6.01c4.36,2.84,9.02,6.41,12.51,10.27.41.45,1.54,2.33,1.66,2.42ZM74.03,130.01c.14,1.75-1.51,6.21-1.06,7.52.74,2.17,8.31,6.69,10.57,6.67s9.8-4.89,10.54-6.94c.21-.6-1.46-6.58-1.34-7.85-4.95,5.62-13.35,5.63-18.7.6ZM95.45,140.27c-.46-.12-.5.12-.75.3-.94.65-1.94,1.87-3.07,2.66-1.67,1.17-6.44,3.75-8.38,3.69-3.3-.11-9.54-4.62-11.92-6.95l-2.38,6.15c5.09,3.8,10.15,7.69,14.13,12.71l.46.14c3.85-5.1,9.03-9,14.2-12.67.34-.54-2.31-4.88-2.29-6.03Z"/>
            <path d="M124.87,179.07h-25.65c-.4,0-.74-.19-.95-.53-.15-.25-.23-.58-.23-.95,0-.93.51-2.23,1.48-2.23h8.79c.11-.93-.03-2.5-.17-4.02-.26-2.9-.38-4.72.19-5.54.41-.59,1.14-.83,1.88-.64.75.2,1.28.8,1.35,1.52l.36,8.69h10.44c-.06-.77-.13-1.74-.2-2.84-.39-5.89-1.12-16.85-3.66-19.22-1.23-1.15-8.96-4.07-11.09-4.55-1.68-.38-5.64-.81-7.08-.39-.31.12-1.77,1.19-4.32,3.18l-.39.3c-2.68,2.07-6.52,5.2-8.95,8.37-.22.29-.51.82-.79,1.33-.49.9-.81,1.47-1.12,1.73-.5.42-1.01.59-1.51.49-.99-.18-1.6-1.28-2.14-2.25-.19-.34-.37-.67-.53-.87-3.55-4.52-8.33-8.04-12.94-11.44l-.57-.42c-.65-.24-2.31.12-3.78.44-2.31.5-4.3.94-5.06-.01-.38-.48-.53-1.1-.39-1.67.13-.53.47-.94.98-1.17.97-.44,2.46-.58,3.89-.71,1.17-.11,2.38-.22,3.1-.49.14-.05.17-.1.2-.16l.58-1.29c1.88-4.14,3.65-8.06,4.2-12.75.05-.41.05-.82.06-1.23,0-.71.02-1.45.23-2.2-5.17-7.98-7.97-16.58-7.5-23.05.01-.19.08-.41.14-.61-.62-.06-1.67-.29-1.93-1.68v-15.35s-4.45-1.39-4.45-1.39v13.95c0,.43-1.45,2.5-1.6,2.64-1.51,1.36-3.6,1.75-5.44,1.03-1.88-.74-3.12-2.42-3.32-4.51-.28-2.97-.15-6.2-.03-9.32.11-2.84.23-5.78.04-8.49.11-1.09,1.02-1.37,1.63-1.55.1-.03.19-.06.29-.09,5.88-2.04,12.25-3.62,18.4-5.14,5.36-1.33,10.91-2.7,16.09-4.38l.14-.05,35.78,10.14c.52.37.8.93.75,1.53-.05.64-.44,1.22-1.06,1.54l-.1.04-13.89,3.9c-.15.88-.09,4.91-.04,7.9.06,3.43.11,6.68-.05,7.84-.22,1.52-.87,2.99-1.5,4.4-.39.89-.77,1.73-1.01,2.53-.36,1.2-.65,2.42-.93,3.6-.45,1.91-.92,3.88-1.72,5.87-.59,1.47-1.25,2.64-1.83,3.67-1.24,2.19-2.21,3.92-1.98,7.34.31,4.57,1.99,8.44,3.77,12.53.31.72.63,1.45.94,2.19h.15c2.37.02,4.81.04,7.22.55.1-.58.2-1.16.29-1.74.69-4.27,1.4-8.68,6.17-10.72,3.83-1.63,8.31-2.41,12.65-3.16,1.64-.28,3.2-.55,4.7-.86.46-1.18.96-2.34,1.45-3.46,1.48-3.44,2.89-6.69,3.21-10.42-.37-.14-1.17-.35-1.74-.5-.83-.21-1.6-.42-2-.59-1.62-.73-5.18-3.89-5.77-6.29-.24-.96.05-1.59.33-1.95.39-.49.83-.7,1.31-.69,1.06.09,1.82,1.47,2.5,2.69.24.43.46.83.62,1.02,1.26,1.52,3.05,2.44,5.11,2.65-.22-.39-.47-.76-.72-1.16-.37-.57-.76-1.16-1.06-1.8-1.69-3.54-2.51-8.36-2.7-11.4-.03-.52-.01-1.71.01-3.08.03-1.93.09-5.16-.08-5.63-.11-.09-.81-.05-1.12-.03l-1.94,8.88-.2.11c-1.03.56-1.8.64-2.35.24-1.06-.77-.66-2.89-.34-4.59l.08-.45c.19-1.05.37-1.83.53-2.53.35-1.54.59-2.55.57-5-.01-1.58,0-3.17.02-4.76.03-3.12.06-6.35-.12-9.52l-13.27-3.79c-.94-.36-1.52-1.05-1.55-1.82-.03-.74.43-1.38,1.27-1.77l34.68-9.77,1.35.02,9.26,2.72.09.08c.54.5.78,1.31.61,2.03-.14.6-.55,1.04-1.13,1.2-.96.27-2.84-.3-5.6-1.21-1.57-.52-3.19-1.05-4.04-1.11l-27.94,7.91,28.14,7.65,27.62-7.66-9.43-2.84-.09-.11c-.68-.77-.83-1.74-.39-2.46.43-.7,1.29-.98,2.26-.73l15.1,4.24c.78.24,1.22.88,1.21,1.75-.21,2.72-.09,5.65.02,8.48.13,3.05.25,6.2-.03,9.08-.19,1.96-1.34,3.57-3.08,4.32-1.79.76-3.82.46-5.44-.82-.53-.42-1.85-2.06-1.85-2.96v-13.68l-4.41,1.12c.17,2.17.06,4.53-.05,6.83-.13,2.65-.26,5.39.06,7.76.11.81.47,1.86.82,2.87.29.83.58,1.68.75,2.45,1.42,6.32,2.28,14.96-1.73,20.24-1.99,2.62-4.97,4.1-8.87,4.41.42,3.73,1.8,6.98,3.26,10.41.47,1.11.95,2.22,1.39,3.36.54.28,1.55.4,2.53.5,1.83.2,3.91.44,4.17,1.98.11.67-.02,1.19-.39,1.55-.83.8-2.54.44-4.34.06-1.08-.23-2.56-.54-2.96-.26-4.72,3.45-10.08,7.38-13.89,12.71-.12.17-.23.4-.35.64-.35.68-.78,1.53-1.58,1.72-.48.11-.99-.04-1.53-.44-.24-.18-.58-.69-1.42-2.02-.5-.78-1.06-1.66-1.35-2.01-3.26-3.88-7.66-7.11-11.91-10.24l-.78-.57c-.99.23-2.46.48-4.15.77-5.05.88-12.68,2.2-14.38,4.04-1.13,1.22-1.7,4.34-2.16,6.84-.17.9-.32,1.76-.49,2.46.71.28,1.5.56,2.33.85,3.29,1.14,7.03,2.43,8.54,5.24.86,1.59,1.5,3.78,1.95,6.67l19.01.02c1.07.2,1.64.95,1.55,1.93-.08.85-.69,1.77-1.54,1.77h-18.3c.52,4.45,1.04,9.62,1.14,14.71.04.49-.51,1.1-.61,1.21-.23.25-.42.36-.63.36ZM99.52,176.35c-.12,0-.48.55-.48,1.23,0,.26.06.39.09.43.03.05.04.05.09.05h25.51c.14-.14.36-.45.39-.57-.11-5.25-.67-10.61-1.2-15.16l-.07-.56h19.42c.18,0,.5-.39.54-.87.04-.47-.17-.75-.65-.85l-19.78-.02-.06-.43c-.44-2.99-1.06-5.2-1.91-6.77-1.33-2.46-4.87-3.69-7.99-4.77-1.01-.35-1.96-.68-2.8-1.03l-.41-.17.12-.42c.2-.71.39-1.73.59-2.8.51-2.76,1.08-5.9,2.41-7.33,1.93-2.09,9.45-3.39,14.94-4.35,1.8-.31,3.36-.58,4.31-.81l.23-.05,1.15.85c4.1,3.01,8.75,6.43,12.08,10.4.34.4.89,1.28,1.43,2.12.43.68,1.03,1.61,1.19,1.76.19.14.47.3.69.26.35-.08.66-.7.92-1.2.15-.29.29-.56.43-.77,3.9-5.46,9.33-9.43,14.13-12.94.77-.52,2.14-.23,3.74.1,1.26.26,2.99.63,3.44.2.12-.11.15-.33.1-.66-.13-.8-1.81-.99-3.29-1.15-1.24-.14-2.4-.27-3.1-.75l-.13-.09-.06-.14c-.46-1.19-.95-2.34-1.44-3.49-1.56-3.66-3.03-7.12-3.39-11.23l-.04-.52.52-.03c3.85-.2,6.76-1.57,8.65-4.05,3.97-5.24,2.67-14.41,1.55-19.42-.16-.71-.45-1.54-.72-2.34-.37-1.06-.74-2.15-.87-3.06-.33-2.46-.19-5.24-.06-7.94.12-2.41.23-4.9.02-7.11l-.04-.43,6.49-1.64v14.97c0,.38.92,1.74,1.47,2.17,1.32,1.04,2.98,1.3,4.42.69,1.4-.6,2.32-1.9,2.48-3.49.27-2.82.15-5.93.02-8.95-.12-2.86-.24-5.82-.02-8.57,0-.52-.26-.68-.49-.75l-15.08-4.24c-.52-.13-.96-.03-1.15.29-.19.31-.11.76.2,1.17l12.46,3.75-31.22,8.66-31.88-8.67,31.56-8.93h.08c.97.04,2.63.59,4.39,1.17,1.9.63,4.27,1.41,5.01,1.2.23-.07.37-.22.43-.47.08-.33-.02-.73-.24-.99l-8.96-2.63h-1.07l-34.41,9.71c-.38.18-.63.49-.62.8.01.36.35.71.87.91l13.91,3.97.02.35c.2,3.31.17,6.68.14,9.94-.01,1.58-.03,3.16-.02,4.74.02,2.56-.24,3.68-.6,5.23-.16.68-.33,1.45-.52,2.48l-.09.46c-.18.96-.6,3.2-.06,3.6.17.12.57.05,1.08-.2l2.01-9.18h.39c.08-.01.18-.02.29-.03.71-.05,1.68-.11,2.1.5.27.39.32,1.6.24,6.17-.02,1.29-.04,2.52-.01,3,.19,2.96.98,7.62,2.61,11.04.28.58.63,1.11,1,1.68.42.64.86,1.31,1.18,2.05l.3.7h-.76c-2.7-.02-5.09-1.1-6.71-3.06-.22-.27-.46-.69-.73-1.18-.44-.8-1.18-2.13-1.7-2.17-.16,0-.33.16-.45.31-.21.27-.26.62-.14,1.09.5,2.02,3.75,4.97,5.21,5.62.32.14,1.13.35,1.84.54,1.95.51,2.41.65,2.5,1.11v.06s0,.06,0,.06c-.29,4.03-1.82,7.6-3.31,11.05-.52,1.2-1.05,2.44-1.53,3.68l-.1.25-.27.06c-1.61.34-3.26.62-5,.93-4.28.74-8.7,1.51-12.42,3.09-4.27,1.82-4.9,5.77-5.58,9.96-.12.76-.24,1.52-.39,2.27l-.1.51-.51-.12c-2.47-.59-4.91-.61-7.51-.64h-.81s-.13-.31-.13-.31c-.35-.84-.71-1.66-1.06-2.48-1.81-4.17-3.53-8.12-3.85-12.86-.25-3.71.84-5.65,2.11-7.89.6-1.06,1.21-2.15,1.77-3.55.77-1.92,1.23-3.86,1.67-5.73.28-1.19.58-2.43.95-3.66.26-.86.65-1.73,1.05-2.64.6-1.36,1.22-2.76,1.42-4.14.16-1.08.1-4.44.04-7.68-.11-6.25-.09-8.14.25-8.62l.1-.15,14.25-4c.28-.16.46-.42.48-.7.02-.23-.08-.44-.28-.6l-35.24-9.96c-5.18,1.66-10.68,3.03-16.01,4.35-6.13,1.52-12.47,3.09-18.31,5.12-.1.04-.21.07-.32.1-.65.2-.89.32-.92.62.2,2.68.08,5.64-.03,8.51-.12,3.09-.25,6.29.02,9.19.16,1.71,1.16,3.08,2.69,3.68,1.51.59,3.16.28,4.41-.84.19-.19,1.09-1.62,1.27-1.99v-15.22l6.44,2.02v15.99c.12.65.56.74,1.21.79.27.02.5.04.69.18.33.24.19.59.08.86-.07.17-.18.47-.19.62-.46,6.32,2.33,14.78,7.47,22.63l.13.2-.08.23c-.23.69-.24,1.39-.25,2.13,0,.43-.01.88-.06,1.34-.56,4.84-2.37,8.83-4.28,13.05l-.58,1.28c-.2.43-.53.6-.76.69-.85.32-2.07.43-3.36.55-1.35.12-2.75.25-3.57.62-.28.13-.38.34-.42.49-.06.27.01.57.2.81.37.46,2.59-.02,4.06-.34,1.81-.39,3.53-.76,4.44-.36l.1.06.62.46c4.67,3.44,9.5,7,13.14,11.63.21.26.41.62.62,1,.39.7.92,1.66,1.45,1.76.07,0,.29.05.69-.27.19-.16.59-.9.89-1.44.31-.57.61-1.12.87-1.46,2.5-3.26,6.41-6.44,9.13-8.55l.38-.3c2.98-2.32,4.24-3.23,4.66-3.35,1.69-.49,5.83-.01,7.58.38,2.05.46,10.09,3.43,11.55,4.79,2.61,2.44,3.39,11.16,3.97,19.89.09,1.37.17,2.53.25,3.36l.05.55h-12.5l-.39-9.62c-.03-.34-.35-.55-.61-.62-.13-.03-.55-.11-.8.25-.41.58-.19,2.97-.02,4.88.17,1.92.34,3.74.07,4.74l-.1.37h-9.59ZM83.72,159.54l-.94-.29-.1-.12c-3.87-4.88-8.65-8.6-14.04-12.62l-.3-.23,2.79-7.21.54.53c2.3,2.26,8.48,6.71,11.59,6.81,1.69.06,6.23-2.3,8.08-3.6.56-.39,1.09-.9,1.61-1.39.5-.48.98-.94,1.46-1.27.04-.03.07-.06.1-.09.22-.21.5-.43,1.07-.28l.38.1v.39c-.01.45.68,1.9,1.18,2.97,1.01,2.13,1.31,2.86,1.02,3.32l-.13.14c-5,3.54-10.21,7.42-14.09,12.56l-.21.28ZM69.54,145.94c5.09,3.8,9.96,7.63,13.81,12.43,3.89-5.04,8.98-8.87,13.9-12.34-.11-.45-.64-1.58-1.01-2.36-.58-1.21-.99-2.11-1.18-2.76-.02.02-.05.04-.08.06-.42.29-.87.72-1.34,1.17-.54.52-1.1,1.05-1.72,1.49-1.52,1.07-6.51,3.82-8.69,3.78-3.23-.11-8.91-4.04-11.71-6.58l-1.97,5.11ZM83.53,144.7c-2.45,0-10.22-4.65-11.03-7.01-.29-.84.07-2.41.48-4.23.3-1.32.61-2.68.55-3.41l-.1-1.29.94.89c2.57,2.42,6,3.71,9.45,3.54,3.3-.16,6.33-1.62,8.53-4.11l1.01-1.15-.14,1.52c-.05.58.39,2.58.74,4.19.58,2.64.71,3.41.58,3.78-.84,2.34-8.71,7.25-11,7.27h-.02ZM74.48,131.06c-.1.76-.31,1.67-.52,2.62-.32,1.39-.71,3.11-.51,3.69.67,1.94,8.04,6.33,10.08,6.33h.01c2.1-.02,9.44-4.84,10.07-6.61.03-.28-.34-1.99-.62-3.23-.3-1.38-.54-2.49-.66-3.3-2.29,2.2-5.25,3.48-8.45,3.64-3.37.15-6.73-.97-9.4-3.13ZM148.95,143.21c-.13,0-.25-.04-.37-.12h0c-.12-.08-.18-.17-.71-.99-.35-.54-.83-1.27-1.03-1.5-3.81-4.22-8.85-7.87-12.41-10.19l-.34-.22,2.79-6.97,6.65,4.63c1.43.78,4.76,2.28,5.8,2.28h0c.6,0,1.92-.58,2.71-.92l.47-.2c2.87-1.21,5.7-3.12,8.39-5.68l.76-.72.09,1.04c.04.45.58,1.6,1.05,2.61,1.09,2.33,1.53,3.42,1.15,4.02l-.14.14c-3.99,2.8-8.15,5.88-11.56,9.43-.11.12-.33.4-.6.75-1.32,1.72-2.08,2.61-2.68,2.61ZM135.3,129.79c3.58,2.36,8.5,5.97,12.27,10.13.24.27.64.87,1.13,1.63.13.21.26.4.35.54.47-.39,1.36-1.56,1.78-2.1.3-.39.54-.7.67-.84,3.43-3.57,7.59-6.66,11.58-9.46,0-.44-.76-2.04-1.21-3.02-.36-.78-.7-1.49-.91-2.07-2.6,2.36-5.31,4.15-8.08,5.31l-.45.2c-.97.42-2.3,1-3.11,1h0c-1.47,0-5.36-1.9-6.33-2.43l-5.66-3.94-2.02,5.04ZM83.13,131.65h-.12c-5.83-.07-11.31-5.72-14.67-15.11-.02-.06-2.06-5.83-2.06-7.19v-5.79h.51c1.01.02,2.16.26,3.39.52,1.71.35,3.48.71,4.74.42.07-.12.15-.89.04-1.11-.15-.29-1.05-.46-1.43-.54l-.13-.03c-1.18-.23-2.4-.38-3.7-.53-1.61-.19-3.28-.38-4.84-.76l-.38-.09v-14.91l19.06,4.98,18.75-4.98v14.95l-.42.07c-.91.15-1.81.32-2.72.49-2.13.39-4.33.79-6.51,1.03-1.06.11-2.27.12-3.45.13-1.32.01-2.68.02-3.75.19-.77.12-1.04.55-1.04.89,0,.32.27.74.99.83,1.34.17,3.74-.06,5.49-.22l1.06-.1c.39-.03,1.32-.19,2.31-.36,2.86-.49,3.81-.62,4.18-.5,1.07.35,1.44,4.49,1.44,4.53,0,2.19-1.86,7.48-2.51,9.16-3.45,8.93-8.63,14.04-14.22,14.04ZM67.29,104.6v4.75c0,.9,1.41,5.21,2,6.85,3.21,8.98,8.35,14.38,13.74,14.45h.1c5.15,0,9.99-4.88,13.29-13.4.79-2.06,2.44-6.91,2.45-8.8,0-.71-.48-3.09-.8-3.58-.46.04-2.44.33-3.65.54-1.06.18-1.97.33-2.4.37l-1.05.1c-1.9.18-4.26.41-5.71.22-1.27-.16-1.85-1.03-1.86-1.81,0-.79.57-1.69,1.88-1.89,1.14-.17,2.54-.19,3.89-.2,1.15,0,2.33-.02,3.35-.13,2.15-.23,4.33-.63,6.44-1.01.77-.14,1.55-.28,2.32-.42v-12.8l-17.75,4.72-18.06-4.72v12.83c1.4.31,2.89.48,4.34.65,1.26.15,2.56.3,3.77.54l.13.02c.7.13,1.75.34,2.13,1.06.26.51.18,1.43-.05,1.95-.19.41-.45.55-.64.59-1.47.35-3.35-.04-5.17-.42-.97-.2-1.89-.39-2.69-.46ZM148.8,128.25c-.22,0-.42-.02-.6-.06-2.1-.5-9.19-4.64-9.95-7.06-.23-.75.61-6.12.77-6.71.1-.4.44-.66,1.01-.75.38-.06.98.2,2.98,1.24.89.46,1.8.93,2.24,1.08,4.64,1.52,8.98.75,13.29-2.35l1.08-.78-.3,1.29c-.17.75.13,2.07.43,3.34.37,1.58.71,3.08.29,3.99-.39.84-3.71,3.6-4.46,4.08-.05.03-4.29,2.7-6.76,2.7ZM140.12,114.65c-.12.03-.17.06-.17.07-.18.78-.84,5.55-.74,6.13.59,1.88,7.18,5.87,9.22,6.36,1.33.33,4.72-1.3,6.59-2.5.82-.53,3.84-3.14,4.09-3.66.27-.59-.06-2.05-.36-3.34-.22-.96-.44-1.89-.49-2.7-4.27,2.78-8.75,3.42-13.34,1.91-.51-.17-1.42-.64-2.38-1.14-.85-.44-2.13-1.1-2.42-1.13ZM149.49,115.05c-1.39,0-2.76-.23-4.1-.7-3.9-1.37-7.04-4.61-8.62-8.9-.47-1.29-1.69-5.72-1.69-6.96v-11l.59.11c8.43,1.55,17.55,1.55,27.9,0l.52-.08.05.53c.69,7.2.62,20.02-7.58,24.96-2.25,1.36-4.67,2.05-7.06,2.05ZM136.08,88.69v9.81c0,1.04,1.15,5.29,1.63,6.61,1.48,4.01,4.4,7.03,8.02,8.3,3.35,1.17,7.01.73,10.31-1.26,7.54-4.55,7.76-16.44,7.15-23.48-10,1.46-18.88,1.46-27.11.03ZM160.54,112.13l.58-.81c2.7-3.77,4.38-8.66,4.73-13.77.09-1.25,0-2.81-.07-4.32-.1-2.02-.21-4.11.06-5.66l.04-.21.22-.17c.3-.2,1.67-.53,2-.46,1.63.38,2.96,11.32,2.97,11.43.24,4.75-.92,8.86-3.19,11.28-1.61,1.73-3.75,2.62-6.35,2.66l-.99.02ZM166.79,87.98c-.2,1.42-.1,3.34-.01,5.2.08,1.54.16,3.13.07,4.44-.34,4.91-1.87,9.63-4.33,13.42,1.87-.22,3.43-.98,4.64-2.28,2.08-2.22,3.15-6.07,2.92-10.54-.09-1.72-1.49-9.51-2.25-10.5-.19.04-.74.16-1.03.26ZM52.26,100.64c-.21,0-.43-.02-.65-.06-1.31-.24-2.22-1.1-2.22-2.08v-16.18l5.25,1.35-.11,15.56c-.35.9-1.2,1.42-2.26,1.42ZM50.39,83.61v14.89c0,.47.62.95,1.4,1.1.66.12,1.45.01,1.77-.66l.07-14.5-3.24-.83ZM83.24,89.83l-.13-.04-31.15-8.79,31.58-8.76.13.04,29.83,8.22-.06.43c-.1.73-1,.95-1.59,1.1-.1.02-.19.05-.26.07-6.09,1.86-12.37,3.51-18.43,5.1-3.27.86-6.53,1.72-9.78,2.61l-.13.04ZM55.67,81.01l27.58,7.79c3.21-.88,6.43-1.73,9.66-2.58,6.06-1.59,12.32-3.24,18.39-5.09.09-.03.2-.05.32-.08.02,0,.05-.01.07-.02l-28.15-7.75-27.87,7.73ZM149.16,87.07c-6.18,0-12.36-.6-18.5-1.81l-.4-.08v-15.24l18.78,5.24,19.03-5.24v15.24l-.4.08c-6.14,1.21-12.32,1.81-18.5,1.81ZM131.25,84.36c11.88,2.29,23.93,2.29,35.81,0v-13.11l-18.03,4.96-17.78-4.96v13.1ZM180.37,84.33c-1.03,0-1.88-.54-2.27-1.45l-.04-.18c-.17-4.56-.3-9.93.05-15.19l.02-.35,5.03-1.45v16.6c-.24,1.06-1.26,1.89-2.49,2.01-.1,0-.2.01-.3.01ZM179.05,82.57c.39.8,1.26.78,1.52.75.66-.06,1.41-.49,1.58-1.17v-15.11l-3.07.89c-.31,5.07-.19,10.23-.03,14.64Z"/>
          </g>
          <g>
            <path d="M41.44,171.33c.25-4.55,1.48-14.88,3.67-18.8,1.75-3.12,5.97-3.54,4.63-.8-.28.58-1.48.87-1.87,1.29-.85.94-1.76,4.57-2.06,5.94-1.19,5.41-1.57,11.36-1.66,16.89h11.01s.45-.42.45-.45v-6.64c0-.12.32-2.19.36-2.35.36-1.29,2.23-.96,2.5.35l-.45,9.09h30.62c1.77,0,1.93,2.72.01,2.73-14.86-.85-30.87,1.07-45.59,0-.7-.05-1.12-.13-1.64-.62.09-2.2-.12-4.44,0-6.64Z"/>
            <path d="M53.4,179.42c-3.5,0-6.97-.09-10.35-.33-.73-.05-1.3-.14-1.95-.76l-.16-.16v-.23c.05-1.03.03-2.09,0-3.11-.03-1.16-.06-2.36,0-3.53.25-4.47,1.49-15,3.74-19.01,1.29-2.3,3.86-3.35,5.13-2.68.29.15,1.16.76.38,2.34-.24.48-.8.77-1.3,1.02-.26.13-.55.28-.65.39-.62.68-1.44,3.44-1.94,5.71-.98,4.45-1.51,9.78-1.64,16.29h10.32s.09-.09.14-.14v-6.45c0-.2.34-2.33.38-2.49.21-.75.85-1.24,1.61-1.18.77.03,1.65.57,1.86,1.57v.06s-.41,8.63-.41,8.63h30.1c1.23,0,1.89.98,1.89,1.91,0,.9-.64,1.82-1.87,1.82-7.15-.4-14.67-.17-21.95.06-4.4.14-8.89.28-13.33.28ZM41.95,177.74c.33.26.62.3,1.17.34,7.62.55,15.73.3,23.58.05,7.3-.23,14.84-.46,22.01-.06.62,0,.85-.43.85-.82,0-.44-.28-.91-.89-.91h-31.15l.47-9.54c-.12-.45-.54-.7-.9-.72-.22-.02-.51.06-.62.45-.04.17-.33,2.04-.34,2.24v6.61c0,.31-.64.95-.95.95h-11.52v-.51c.11-6.81.66-12.36,1.68-16.99.18-.83,1.15-5.04,2.17-6.17.23-.25.57-.42.94-.61.32-.16.76-.39.85-.57.15-.31.36-.85.05-1.01-.67-.35-2.72.38-3.79,2.28-2.16,3.86-3.37,14.18-3.61,18.58h0c-.06,1.13-.04,2.31,0,3.45.02.96.05,1.96.02,2.94Z"/>
          </g>
          <g>
            <path d="M171.63,162.28c-.97-.18-1.36-1.67-.68-2.34.64-.63,2.65-.29,3.55-.37.19-1.41-.83-9.49-.13-9.99.26-.18,1.41-.36,1.74-.29,1.15.24.54,8.85,1.1,10.27h11.47c-.82-4.74-.77-19.41-3.92-22.78-1.4-1.5-5.13-1.05-3.65-3.93,4.91-.29,6.63,3.2,7.78,7.34,1.4,5.03,2.73,15.34,2.22,20.44-.04.45-.23,1.64-.77,1.64h-18.71Z"/>
            <path d="M190.34,162.78h-18.8c-.62-.12-1.12-.6-1.33-1.29-.22-.71-.07-1.46.39-1.91.61-.6,1.83-.56,2.9-.52.18,0,.36.01.52.01,0-.72-.09-2.01-.18-3.27-.33-4.78-.34-6.24.24-6.64.39-.27,1.68-.47,2.13-.37.97.21,1.1,2.04,1.19,6.5.03,1.43.06,3.02.19,3.77h10.5c-.19-1.37-.34-3.3-.5-5.48-.45-5.98-1.07-14.18-3.19-16.46-.41-.43-1.11-.7-1.8-.95-.93-.34-1.89-.7-2.22-1.55-.21-.55-.12-1.21.29-2l.13-.25.28-.02c5.32-.33,7.13,3.52,8.29,7.71,1.43,5.15,2.74,15.5,2.23,20.62-.08.78-.35,2.09-1.27,2.09ZM171.69,161.78h18.65c.03-.06.21-.52.27-1.19.5-5.03-.79-15.19-2.2-20.26-1.19-4.28-2.84-7.11-6.97-6.99-.17.39-.21.7-.12.92.17.43.88.7,1.63.98.76.28,1.61.6,2.18,1.21,2.36,2.53,2.97,10.59,3.46,17.06.19,2.49.35,4.64.58,5.97l.1.59h-12.4l-.12-.32c-.25-.63-.29-2.09-.34-4.43-.04-1.87-.1-4.97-.47-5.54-.28-.02-.97.1-1.23.19-.22.67,0,3.85.13,5.77.14,2.04.23,3.33.15,3.89l-.05.39-.4.04c-.29.03-.67.01-1.08,0-.7-.02-1.87-.07-2.17.23-.19.19-.25.55-.14.9.07.24.25.52.52.58Z"/>
          </g>
          <g>
            <path d="M152.85,161.91c-.93-.93-.32-2.12,1-2.32,1.06-.16,7.27-.15,7.85.26.77.55.77,1.61,0,2.16-.67.48-8.28.47-8.85-.1Z"/>
            <path d="M157.34,162.86c-2.2,0-4.42-.18-4.84-.6-.53-.53-.72-1.19-.51-1.82.23-.7.92-1.22,1.79-1.35.75-.12,7.39-.24,8.21.34.5.36.79.9.79,1.49,0,.59-.29,1.13-.79,1.49-.39.28-2.51.45-4.65.45ZM153.18,161.53c.82.4,7.45.45,8.25.05.21-.15.35-.4.35-.66s-.13-.5-.37-.67c-.64-.29-6.44-.33-7.48-.17-.5.08-.88.34-1,.67-.1.31.07.59.24.77Z"/>
          </g>
        </g>
      </g>
    </g>
  </g>
</svg>