<?xml version="1.0" encoding="UTF-8"?>
<svg id="Layer_2" data-name="Layer 2" xmlns="http://www.w3.org/2000/svg" viewBox="0 0 232.63 232.63">
  <defs>
    <style>
      .cls-1 {
        fill: #fff;
      }
    </style>
  </defs>
  <g id="Layer_1-2" data-name="Layer 1">
    <g>
      <circle class="cls-1" cx="116.31" cy="116.31" r="116.31"/>
      <g id="efpaqR.tif">
        <g>
          <path d="M194.31,144.06c.21,2.09.21,6.44,0,8.53-2.52,24.95-33.99,36.95-53.18,20.71-25.67-21.73-5.76-63.13,27.03-56.88,13.01,2.48,24.79,14.22,26.15,27.64ZM165.97,120.91c-2.72-.28-5.2-.42-7.92,0,.36.65,3.69,3.08,4.07,3.01l3.85-3.01ZM151.26,122.78c-.52.09-2.46,1.19-3.07,1.54-1.39.79-7.35,5.09-7.41,6.49-.02.47,2.75,8.65,3.08,8.99.23.23,5.48,2.34,5.79,2.32,1.15-.05,7.84-6.08,9.59-6.74.44-.52.5-6.47.16-7.16-.19-.39-6.37-4.9-6.99-5.2-.48-.23-.59-.33-1.16-.23ZM180.21,139.72l2.83-8.9c-1.15-2.28-8.78-8.39-11.07-8.03-1.4.22-5.67,4.63-7.47,5.19.14,1.67-.6,6.47.38,7.57l9.2,6.64c1-.59,5.65-1.87,6.12-2.47ZM189.13,143.76l-1.21-5.03-1.53-2.89c.13.93-1.62,4.39-1.38,4.89.27.57,3.5,2.26,4.12,3.03ZM137.62,136.14c-.46-.47-.53.17-.68.39-.55.84-2.53,6.37-2.06,6.92l3.98-2.64c-.18-.64-1.07-4.5-1.24-4.67ZM170.8,145.64c-3.1-1.85-5.77-4.48-8.96-6.14l-8.37,5.94c-.44.31-.29.7-.25,1.13.31,2.88,2.55,6.73,3.14,9.69.22.34.57.28.9.32,3.09.38,7.01-.28,10.18-.06l3.35-10.87ZM134.32,149.91c.33,4.54,1.55,9.15,4.21,12.89.51.24,8.82.3,9.54.09s3.86-4.34,3.75-5.12l-3.58-10.76c-.25-.41-5.66-2.64-6.15-2.56-1.27.2-6.02,4.89-7.77,5.47ZM181.72,144.42c-.84.01-5.85,2.12-6.23,2.91-.11,2.44-3.64,8.98-3.43,10.89.03.31,3.28,4.59,3.56,4.68.46.16,9.2.16,9.65,0,1.88-2,5.08-10.85,4.01-13.06-.2-.42-7.09-5.43-7.56-5.42ZM168.64,175.07c.35-.34,3.04-8.75,2.98-9.23-.03-.29-3.26-4.44-3.52-4.57-1.69-.83-9.61.27-11.98-.09-.33.1-3.55,3.83-3.73,4.21-.25.53-.11.73-.02,1.22.22,1.19,2.05,6.74,2.59,7.78.6,1.15,1.75,1.09,2.96,1.31,1.84.33,9.53.51,10.71-.64ZM147.53,167.83h-5.03c1.77,2.06,4.15,3.65,6.55,4.88.46,0-1.13-4.75-1.52-4.88ZM181.51,167.83h-5.49l-1.52,5.18c2.56-1.38,4.99-3.07,7.01-5.18Z"/>
          <path d="M60.51,183.98c-14.2-1.43-21.37-17.71-22.25-30.32-.1-1.38-.22-5.77.13-6.87.52-1.6,3.55-1.66,4.21-.21.55,1.2.37,5.7.57,7.35,1.4,11.6,8.04,28.49,22.75,24.65,6.67-1.74,9.97-7.61,12.27-13.64,3.98-10.46,3-21.12,3-32.11-12.23-5.35-26.08-5.33-38.32,0-.34,1.57.64,5.4-.83,6.33-1.08.68-3.2.5-3.64-.86s-.29-6.97.41-8.16c.9-1.52,5.08-2.95,6.83-3.53,6.25-2.05,12.87-2.88,19.44-2.66v-7.47c0-1.36,2.5-2.84,3.82-2.91,1.95-.1,7.82,1.96,10.44,2.36,7.65,1.18,15.06.87,22.62-.67,3.94-.8,9.47-4.01,10.94,1.85-.28,8.58.75,17.62-.67,26.09-.43,2.54-1.23,9.44-5.09,7.7-2.32-1.05-.21-5.73.16-7.76,1.43-7.98.48-16.29.75-24.38-12.47,3.61-25.62,3.63-38.1,0v5.79c2.47.39,4.92.95,7.31,1.68,2.56.78,8.84,2.49,8.84,5.79v16c.22.08.36-.3.46-.3h4.88c.97,0,4.93,1.75,5.79,2.44,1.95,1.58,1.15,4.53-1.22,4.53-1.11,0-3.45-1.83-5.21-2.06-.76-.1-4.62-.09-4.96.32l-2.16,11.21c6.06,2.27,12.6.49,16.74-4.41,1.28-1.51,2.41-5.02,5.18-3.03,2.1,1.51,0,4.11-1.09,5.6-3.72,5.06-10.15,7.97-16.45,7.66-2.16-.11-4.19-.92-6.23-1.1-2.01,3.85-3.76,7.68-7.17,10.52-2.84,2.37-7.14,4.21-10.81,4.58-.89.09-2.46.09-3.35,0Z"/>
          <path d="M118.73,96.83c2.78-.68,7.38-2.24,10.17-2.03,1.97.14,3.19,2.75,1.57,4.18-1,.89-5.76,1.28-7.48,1.66-1.86.41-4.88,1.66-6.55,1.7-2.01.05-6.01-1.63-8.32-2.07-5.76-1.1-11.43-1.22-17.23-.34-2.27.34-7.56,2.18-9.16,2.07s-2.91-1.28-3.4-2.72v-49.38c.7-2.67,5.66-3.57,8.08-4.11,7.49-1.65,15.03-1.73,22.57-.31,1.93.36,5.71,1.85,7.2,1.89,1.35.04,5.57-1.54,7.41-1.89,8.16-1.53,16.74-1.34,24.76.86,2.31.63,5.57,1.23,6.01,4.05.33,2.16.44,8.98-3.41,7.07-2.19-1.08-1.23-3.74-1.49-5.68-9.94-3.36-20.78-3.21-30.74-.04v45.1ZM113.85,51.73c-9.94-3.2-20.85-3.24-30.78,0v45.1c9.92-3.09,20.87-3.08,30.78,0v-45.1Z"/>
          <path d="M149.51,96.83v-31.54c0-1.58,4.34-2.97,4.86.32l-.13,33.66c-1.87,4.46-5.66,2.04-9,1.36-1.78-.36-6.89-.77-7.77-1.98-.3-.41-.48-.85-.48-1.36,0-4.68,10.04-1.07,12.51-.46Z"/>
          <path d="M98.52,175.51c1.47-.44,6.07,1.07,7.95,1.37,6.5,1.05,14.05,1.05,20.55,0,1.96-.32,5.73-1.63,7.41-1.46,2.17.22,2.85,3.38.53,4.52-4.63,2.28-17.51,2.81-22.79,2.5-3-.17-11.12-1.26-13.65-2.5-2-.99-1.92-3.87,0-4.44Z"/>
          <path d="M166.19,74.03c2.09-.43,3.8,2.59,4.9,4.12,4.82,6.71,10.85,20.11,11.31,28.33.17,3.16-3.55,3.92-4.61,1.54-.8-1.8-1.24-6.38-1.91-8.75-1.47-5.17-3.94-10.62-6.73-15.21-.76-1.25-4.44-5.96-4.62-6.65-.38-1.44.07-3.05,1.67-3.38Z"/>
          <path d="M66.22,74.03c2.04-.42,3.26,1.54,2.76,3.39-5.66,7.1-9.72,15.18-11.98,23.98-.49,1.9-.71,7.19-2.57,7.79-5.07,1.62-2.81-5.87-2.25-8.34,1.57-6.9,4.63-13.97,8.39-19.95.91-1.45,4.16-6.56,5.65-6.87Z"/>
          <path d="M143.94,76.81c1.36,1.36.68,3.85-1.3,4.16-2.6.41-14.43.41-17.03,0-2.79-.43-2.62-4.43.31-4.84,3.16-.44,12.89-.39,16.14-.03.51.06,1.55.37,1.89.7Z"/>
          <path d="M125.34,66.12l17.6-.06c2.93,1.55,1.87,4.46-1.25,4.83-3.29.4-11.88.4-15.17,0-3.11-.38-4.23-3.35-1.19-4.78Z"/>
          <path d="M70.79,163.05c1.16.99.8,2.77-.2,3.73-3.73,3.56-12.77,3.31-16.76.27-2.5-1.91-.94-5.07,2.21-4.34.67.16,1.22.83,1.96,1.09,2.7.95,4.69,1.19,7.47.29,1.63-.53,3.56-2.56,5.33-1.04Z"/>
          <path d="M95.49,132.26c2.67-.28,9.24,1.2,7.34,4.9-1.35,2.62-4.23-.09-6.21-.14-2.08-.05-5.05,2.84-6.49.11-1.6-3.03,3.14-4.64,5.35-4.87Z"/>
          <path d="M66.22,147.78c2.04-.47,2.85,1.23,4.8,1.17,1.27-.04,2.15-.95,3.13-1.16,2.96-.64,4.29,2.61,2.21,4.34-2.56,2.13-8.29,2.08-10.81-.13-1.46-1.28-1.21-3.77.68-4.21Z"/>
          <path d="M48.23,147.78c1.88-.56,3.26,1.23,5.11,1.17s4.26-2.61,5.78-.3c2.08,3.15-3.45,5.13-5.79,5.17-1.58.03-5.85-1.07-6.4-2.73-.38-1.12.11-2.95,1.3-3.31Z"/>
          <path d="M108.28,76.81c1.36,1.36.68,3.85-1.3,4.16-2.6.41-14.43.41-17.03,0-2.79-.43-2.62-4.43.31-4.84,3.16-.44,12.89-.39,16.14-.03.51.06,1.55.37,1.89.7Z"/>
          <path d="M89.38,66.12l17.6-.05c3.28,1.13,2.36,4.42-.93,4.82s-11.88.4-15.17,0c-2.98-.36-4.11-2.95-1.5-4.78Z"/>
        </g>
      </g>
    </g>
  </g>
</svg>