<svg xmlns="http://www.w3.org/2000/svg" version="1.1" xmlns:xlink="http://www.w3.org/1999/xlink" width="512" height="512" x="0" y="0" viewBox="0 0 512 512" style="enable-background:new 0 0 512 512" xml:space="preserve" class=""><g><path fill-rule="evenodd" d="M414.258 175.115v137.366a101.09 101.09 0 0 0-11.121-.618 100.026 100.026 0 0 0-29.837 4.525V175.115zm-11.12 152.748c46.43 0 84.069 37.639 84.069 84.069S449.567 496 403.138 496s-84.069-37.639-84.069-84.069 37.639-84.068 84.069-84.068zm-11.042 91.484-18.784-18.784c-4.869-4.869-12.766-4.869-17.635 0-4.868 4.868-4.868 12.766 0 17.634l27.629 27.629c4.869 4.868 12.766 4.868 17.634 0 16.653-16.654 33.118-33.494 49.694-50.224 4.833-4.878 4.818-12.75-.054-17.595-4.873-4.846-12.767-4.832-17.606.055zM229.795 16l191.249 111.254H38.546zm205.001 127.254v6.969c0 4.896-3.997 8.893-8.893 8.893H33.687c-4.896 0-8.893-3.995-8.893-8.893v-6.969zm-206.088 33.084 113.63 30.184a7.981 7.981 0 0 1 5.687 9.75 7.933 7.933 0 0 1-1.903 3.437v59.782l7.967 3.933v41.632l-15.967-10.264-15.967 10.264v-41.632l7.967-3.932v-54.287l-101.529 26.969a7.937 7.937 0 0 1-4.177-.031l-113.63-30.184a7.981 7.981 0 0 1 .109-15.466l113.637-30.186a7.933 7.933 0 0 1 4.176.031zm79.05 71.361-75.057 19.938a23.931 23.931 0 0 1-12.47-.051l-74.866-19.887v41.381c96.919 17.722 65.473 17.722 162.392 0v-41.381zM33.336 366.66h64.95c4.704 0 8.541 3.838 8.541 8.542v14.839c0 4.704-3.837 8.542-8.541 8.542h-64.95c-4.704 0-8.542-3.837-8.542-8.542v-14.839c0-4.705 3.837-8.542 8.542-8.542zM86.29 175.115V350.66H45.332V175.115zM229.795 61.653c-14.307 0-25.905 11.598-25.905 25.905s11.598 25.905 25.905 25.905S255.7 101.865 255.7 87.558s-11.598-25.905-25.905-25.905z" clip-rule="evenodd" fill="#0967ab" opacity="1" data-original="#000000" class=""></path></g></svg>