<svg xmlns="http://www.w3.org/2000/svg" version="1.1" xmlns:xlink="http://www.w3.org/1999/xlink" width="512" height="512" x="0" y="0" viewBox="0 0 512 512" style="enable-background:new 0 0 512 512" xml:space="preserve" class=""><g><path d="M323 81H0v154h30v-36h293zM159 310c0-24.813-20.187-45-45-45H0v50h159zM159 51v-5c0-24.813-20.187-45-45-45H15C6.716 1 0 7.716 0 16v35zM323 345H0v151c0 8.284 6.716 15 15 15s15-6.716 15-15v-33h293zM497 33c-8.284 0-15 6.716-15 15v33h-99V48c0-8.284-6.716-15-15-15s-15 6.716-15 15v448c0 8.284 6.716 15 15 15s15-6.716 15-15v-33h99v33c0 8.284 6.716 15 15 15s15-6.716 15-15V48c0-8.284-6.716-15-15-15zm-15 400h-99v-58h99zm0-88h-99v-58h99zm0-88h-99v-58h99zm0-88h-99v-58h99z" fill="#0967ab" opacity="1" data-original="#000000" class=""></path></g></svg>