<svg xmlns="http://www.w3.org/2000/svg" version="1.1" xmlns:xlink="http://www.w3.org/1999/xlink" width="512" height="512" x="0" y="0" viewBox="0 0 512.001 512.001" style="enable-background:new 0 0 512 512" xml:space="preserve"><g><path d="m157.736 66.487 77.145-46.354-7.726-12.858c-4.264-7.096-13.483-9.399-20.583-5.132l-51.431 30.902c-7.097 4.264-9.398 13.483-5.132 20.583zM468.079 350.071c-4.3-7.08-13.53-9.34-20.61-5.04l-83.71 50.85c3.98 9.55 6.57 19.8 7.54 30.52l91.74-55.73c7.089-4.3 9.339-13.52 5.04-20.6zM386.741 482.001h-45v-46c0-41.355-33.645-75-75-75s-75 33.645-75 75v46h-45c-8.284 0-15 6.716-15 15s6.716 15 15 15h240c8.284 0 15-6.716 15-15s-6.716-15-15-15zm-120-31c-8.284 0-15-6.716-15-15s6.716-15 15-15 15 6.716 15 15-6.716 15-15 15zM155.198 120.51l15.824 26.335 31.994-19.346c37.925-22.931 86.819-10.152 109.323 26.632 23.161 37.863 11.021 87.257-27.062 110.063l-32.169 19.266 10.249 17.056c4.284 7.129 13.543 9.395 20.627 5.105l13.075-7.857 23.013 38.3c4.273 7.113 13.503 9.388 20.583 5.132l51.43-30.902c7.101-4.267 9.398-13.481 5.132-20.583l-23.013-38.3 12.596-7.568c7.101-4.267 9.398-13.482 5.132-20.583-.358-.597-108.257-180.2-108.651-180.773-4.49-6.536-13.292-8.448-20.089-4.363L160.33 99.927c-7.101 4.267-9.399 13.482-5.132 20.583z" fill="#0967ab" opacity="1" data-original="#000000"></path><path d="M161.741 436.001c0-29.354 12.113-55.927 31.596-75h-16.596c-24.813 0-45-20.187-45-45s20.187-45 44.994-45l34.614.015a15.007 15.007 0 0 0 7.707-2.132l50.807-30.428c23.758-14.228 31.336-45.046 16.885-68.669-14.249-23.291-44.848-30.742-68.209-16.617l-46.104 27.879C99.98 183.324 41.741 242.987 41.741 316.001c0 69.369 52.594 126.676 120 134.162z" fill="#0967ab" opacity="1" data-original="#000000"></path></g></svg>