<svg xmlns="http://www.w3.org/2000/svg" version="1.1" xmlns:xlink="http://www.w3.org/1999/xlink" width="512" height="512" x="0" y="0" viewBox="0 0 512 512" style="enable-background:new 0 0 512 512" xml:space="preserve" class=""><g><path d="M503.5 62.153v310.129c0 12.648-10.347 22.995-22.996 22.995H31.495c-12.648 0-22.995-10.347-22.995-22.995V62.153c0-7.528 3.666-14.241 9.301-18.442V153.36c0 12.98 8.955 23.924 21.005 26.976v184.636h434.388V69.463h-210.01V39.158h217.321c12.648 0 22.995 10.348 22.995 22.995zm-83.222 42.367v6.755l20.833-8.548c1.676-.688 4.242.29 4.242 2.844v44.993c0 2.554-2.565 3.532-4.242 2.844l-20.833-8.549v6.755c0 2.781-2.275 5.057-5.057 5.057h-66.38a5.071 5.071 0 0 1-5.057-5.057V104.52c0-2.781 2.275-5.057 5.057-5.057h66.38c2.781.001 5.057 2.276 5.057 5.057zm-23.511 23.547a7.5 7.5 0 0 0-7.5-7.5h-14.472a7.5 7.5 0 0 0 0 15h14.472a7.5 7.5 0 0 0 7.5-7.5zM293.312 273.551a65.781 65.781 0 0 1-42.519-15.514c-27.011 10.217-46.35 36.392-46.35 66.867v25.068H382.18v-25.068c0-30.474-19.339-56.65-46.35-66.867a65.784 65.784 0 0 1-42.518 15.514zm0-114.923c-27.936 0-50.583 22.369-50.583 49.962s22.646 49.961 50.583 49.961 50.582-22.368 50.582-49.961-22.646-49.962-50.582-49.962zm-260.511-5.269V28.578c0-7.054 5.771-12.825 12.825-12.825h189.733c7.054 0 12.826 5.771 12.826 12.825v124.781c0 7.054-5.772 12.824-12.826 12.824h-15.267v47.283a4.627 4.627 0 0 1-3.384 4.499c-2.035.587-3.919-.366-5.26-2.003l-40.737-49.779H45.625c-7.053.001-12.824-5.771-12.824-12.824zM58.59 53.702a7.5 7.5 0 0 0 7.5 7.5h148.805a7.5 7.5 0 0 0 0-15H66.09a7.5 7.5 0 0 0-7.5 7.5zm0 37.267a7.5 7.5 0 0 0 7.5 7.5h148.805a7.5 7.5 0 0 0 0-15H66.09a7.499 7.499 0 0 0-7.5 7.5zm0 37.266a7.5 7.5 0 0 0 7.5 7.5h148.805a7.5 7.5 0 0 0 0-15H66.09a7.5 7.5 0 0 0-7.5 7.5zm135.858 282.042-18.479 37.581h160.062l-18.479-37.581zm187.802 52.581h-252.5c-9.181 0-16.694 7.512-16.694 16.694s7.512 16.695 16.694 16.695h252.5c9.182 0 16.694-7.513 16.694-16.695-.001-9.182-7.513-16.694-16.694-16.694z" fill="#0967ab" opacity="1" data-original="#000000" class=""></path></g></svg>