<svg width="271" height="26" viewBox="0 0 271 26" fill="none" xmlns="http://www.w3.org/2000/svg">
<path d="M151.933 5.12512C147.035 5.52671 128.028 6.65159 109.794 7.63417C62.1459 10.1627 42.0717 11.613 25.8462 13.5054C13.2001 14.9845 1.22803 16.9013 0.592095 17.5575C0.476471 17.6768 0.407086 19.1203 0.403555 20.7344C0.374379 23.3292 0.56993 23.7835 1.91819 24.6587C2.77581 25.2051 3.93254 25.7412 4.41715 25.8972C5.26471 26.1558 37.6282 23.2964 45.3191 22.2785C48.7189 21.8715 153.663 16.9387 179.265 15.987C188.478 15.6653 209.906 15.2629 226.852 15.1322C243.798 15.0016 259.122 14.7547 260.855 14.6365C265.158 14.3709 268.917 12.2223 269.02 10.0283C269.033 8.70211 268.846 8.4781 267.468 8.46858C265.97 8.46323 265.968 8.40566 267.809 7.93791C270.361 7.27237 270.648 6.9165 269.124 6.16274C267.663 5.46446 267.389 4.49411 268.705 4.44815C269.184 4.43144 269.592 4.12897 269.582 3.84111C269.57 3.49569 269.263 3.27585 268.844 3.29047C268.486 3.30301 266.91 2.78162 265.39 2.143L262.594 0.972538L211.743 2.69066C183.804 3.60867 156.89 4.72145 151.933 5.12512ZM193.291 5.98651C193.658 6.20426 197.255 6.3092 201.383 6.16505C205.513 6.07848 213.298 6.03719 218.751 6.13494C227.442 6.29259 226.487 6.38359 210.985 6.69437C201.289 6.91765 185.432 7.35611 175.741 7.69453C166.05 8.03296 158.269 8.18939 158.385 8.07007C158.558 7.89109 165.192 7.4865 173.147 7.15108C181.099 6.7581 187.911 6.28967 188.319 5.98719C189.199 5.43772 192.371 5.38457 193.291 5.98651ZM255.06 4.75174C253.867 4.90867 251.953 4.97552 250.872 4.89798C249.851 4.81835 250.864 4.6677 253.137 4.58831C255.47 4.50684 256.312 4.59273 255.06 4.75174ZM123.584 9.74646C123.468 9.86578 109.655 10.5211 92.8494 11.2232C76.1051 11.9809 66.5315 12.2575 71.6104 11.9073C82.3045 11.1303 123.931 9.3885 123.584 9.74646ZM153.38 8.82126C153.206 9.00024 152.67 9.07661 152.245 8.91852C151.76 8.76252 151.934 8.58354 152.592 8.56056C153.248 8.48001 153.613 8.64019 153.38 8.82126ZM259.276 8.86992C259.709 9.25829 257.978 9.43401 253.908 9.5185C250.614 9.51825 238.889 9.92771 227.884 10.3697C216.878 10.8116 206.348 11.1217 204.549 11.0692C199.211 10.8522 170.434 11.7994 148.908 12.8393C126.786 13.9577 125.4 13.7179 145.594 12.2634C163.696 10.9396 258.473 8.14866 259.276 8.86992ZM114.825 14.4907C96.775 15.5821 78.1702 16.2318 82.5191 15.5612C84.3058 15.2682 95.4865 14.7049 107.331 14.2912C128.451 13.6114 128.63 13.6051 114.825 14.4907ZM193.809 12.2513C193.819 12.5391 193.404 12.6689 192.92 12.5129C192.433 12.2993 192.006 12.0837 192.002 11.9685C191.998 11.8534 192.413 11.7236 192.892 11.7069C193.37 11.6902 193.797 11.9058 193.809 12.2513ZM195.604 12.1886C195.614 12.4764 195.325 12.7747 194.966 12.7873C194.667 12.7977 194.537 12.514 194.706 12.2199C194.874 11.8682 195.165 11.6275 195.344 11.6212C195.464 11.6171 195.592 11.8432 195.604 12.1886ZM200.09 12.0319C200.28 12.3135 200.051 12.6097 199.572 12.6264C199.034 12.6452 198.605 12.372 198.595 12.0841C198.583 11.7387 198.814 11.5001 199.113 11.4896C199.472 11.4771 199.899 11.6928 200.09 12.0319ZM256.942 10.623C258.035 11.046 258.037 11.1036 256.659 11.094C255.821 11.1233 254.377 10.9431 253.352 10.7484L251.542 10.3505L253.635 10.2774C254.772 10.2377 256.274 10.3582 256.942 10.623ZM118.587 15.858C109.617 16.2865 95.0803 16.7941 86.2824 16.9861C77.4865 17.2356 84.8427 16.9211 102.61 16.3006C120.377 15.6802 127.558 15.4871 118.587 15.858ZM6.06707 21.6894C6.07712 21.9772 5.18984 22.2964 4.17085 22.2744C2.49582 22.3329 2.37215 22.2219 3.37506 21.7834C5.02597 21.0341 6.04295 20.9985 6.06707 21.6894ZM15.5668 21.0118C15.4512 21.1311 13.3056 21.4366 10.8589 21.695C7.93564 22.0276 6.67736 22.0139 7.26352 21.6476C8.08294 21.1002 16.1469 20.4728 15.5668 21.0118ZM249.459 14.1699C248.566 14.3163 246.95 14.3727 245.87 14.2952C244.789 14.2177 245.503 14.0775 247.477 14.0085C249.451 13.9396 250.352 14.0234 249.459 14.1699Z" fill="#FFD25D"/>
</svg>
