<?xml version="1.0" encoding="UTF-8"?>
<!-- Generator: Adobe Illustrator 28.0.0, SVG Export Plug-In . SVG Version: 6.00 Build 0)  -->
<svg xmlns="http://www.w3.org/2000/svg" xmlns:xlink="http://www.w3.org/1999/xlink" version="1.1" id="Layer_1" x="0px" y="0px" viewBox="0 0 158 50" style="enable-background:new 0 0 158 50;" xml:space="preserve">
<style type="text/css">
	.st0{fill:#194884;}
</style>
<path class="st0" d="M49.43,25.16c0,8,0,15.99,0,23.99c0,0.2,0,0.4-0.02,0.6c0,0.14-0.1,0.21-0.22,0.23C49.11,50,49.03,50,48.94,50  c-0.16,0-0.33,0-0.5,0c-15.85,0-31.69,0-47.55,0c-0.23,0-0.47,0-0.7-0.02c-0.16-0.01-0.23-0.1-0.25-0.26  c-0.01-0.08-0.01-0.17-0.01-0.25c0-0.14,0-0.27,0-0.4c0-15.97,0-31.95,0-47.92c0-0.21,0-0.44,0.01-0.65  c0.01-0.17,0.1-0.23,0.25-0.26C0.26,0.21,0.35,0.2,0.44,0.2c0.15,0,0.3,0,0.45,0c15.87,0,31.73,0,47.6,0c0.21,0,0.44,0,0.65,0.02  c0.18,0.02,0.27,0.11,0.28,0.29c0.01,0.2,0.01,0.4,0.01,0.6C49.42,9.14,49.42,17.15,49.43,25.16L49.43,25.16z M24.1,13.67  c0,3.35,0,6.7,0,10.05c0,0.19,0,0.37-0.02,0.56c-0.01,0.16-0.1,0.24-0.25,0.26c-0.19,0.02-0.4,0.02-0.6,0.02  c-6.59,0-13.18,0-19.77,0c-0.16,0-0.33,0-0.5,0c-0.09,0-0.16,0-0.25,0.02c-0.11,0.02-0.19,0.09-0.2,0.2c-0.01,0.21-0.02,0.44,0,0.65  c0,0.14,0.1,0.21,0.23,0.22c0.18,0.01,0.37,0.02,0.55,0.02c4.9,0,9.81,0,14.71,0c1.77,0,3.53,0,5.31,0c0.16,0,0.33,0,0.49,0.02  c0.19,0.02,0.27,0.11,0.28,0.29c0.01,0.2,0.01,0.4,0.01,0.6c0,6.69,0,13.38,0,20.06c0,0.77-0.02,0.75,0.8,0.74c0.03,0,0.07,0,0.1,0  c0.16-0.03,0.24-0.1,0.25-0.26c0.01-0.19,0.01-0.37,0.01-0.56c0-6.67,0-13.34,0-20.01c0-0.17,0-0.33,0-0.51  c0.02-0.27,0.09-0.34,0.37-0.37c0.16-0.01,0.33,0,0.5,0c2.32,0,4.64,0,6.96,0c4.34,0,8.68,0,13.01,0c0.67,0,0.74-0.02,0.7-0.75  c-0.01-0.25-0.09-0.33-0.33-0.35c-0.18-0.01-0.37-0.01-0.55-0.01c-4.57,0-9.14,0-13.71,0c-2.05,0-4.1,0-6.15,0  c-0.16,0-0.33,0-0.49-0.02c-0.18-0.02-0.27-0.11-0.28-0.29c-0.01-0.2-0.01-0.4-0.01-0.6c0-6.69,0-13.38,0-20.06  c0-0.78,0.02-0.75-0.8-0.74c-0.05,0-0.1,0-0.15,0.02c-0.11,0.02-0.18,0.09-0.19,0.2C24.1,3.26,24.1,3.44,24.1,3.63  C24.1,6.98,24.1,10.33,24.1,13.67L24.1,13.67z M30.47,13.87c0-0.93,0-1.84,0-2.77c0-0.49,0-0.98,0-1.46c0-0.14,0-0.27,0.01-0.4  c0-0.04,0.04-0.1,0.07-0.12c0.05-0.03,0.1,0.01,0.12,0.06c0.05,0.09,0.09,0.19,0.13,0.27c0.35,0.82,0.7,1.63,1.05,2.45  c1.08,2.53,2.16,5.05,3.24,7.58c0.04,0.09,0.08,0.19,0.12,0.27c0.02,0.05,0.05,0.09,0.08,0.13c0.07,0.09,0.19,0.09,0.24-0.02  c0.15-0.32,0.28-0.64,0.42-0.97c1.31-3.12,2.61-6.24,3.92-9.36c0.07-0.17,0.07-0.41,0.32-0.45c0.15,0.16,0.09,0.35,0.09,0.53  c0,2.77,0,5.53,0,8.3c0,0.34-0.04,0.67-0.09,1c-0.06,0.4-0.3,0.66-0.68,0.79c-0.11,0.04-0.22,0.06-0.34,0.08  c-0.14,0.02-0.26,0.03-0.4,0.05c-0.06,0-0.15,0.01-0.14,0.11c0.01,0.08,0.1,0.08,0.16,0.08c0.1,0,0.2,0,0.3,0c1.69,0,3.37,0,5.06,0  c0.12,0,0.23,0,0.35,0c0.06,0,0.15,0,0.14-0.1c0-0.03-0.07-0.07-0.11-0.08c-0.18-0.04-0.36-0.05-0.54-0.1  c-0.5-0.13-0.82-0.43-0.88-0.97c-0.02-0.17-0.03-0.33-0.03-0.5c0-2.89,0-5.76,0-8.65c0-0.17,0-0.33,0.03-0.5  c0.09-0.62,0.33-0.88,0.94-1c0.17-0.04,0.36-0.06,0.54-0.09c0.02,0,0.05-0.05,0.05-0.07c0-0.03-0.04-0.07-0.06-0.07  c-0.15-0.01-0.3-0.03-0.45-0.03c-1.15,0-2.3,0-3.45,0c-0.8,0-0.75-0.07-1.08,0.74c-0.85,2.1-1.71,4.18-2.57,6.28  c-0.12,0.28-0.23,0.56-0.36,0.83c-0.05,0.11-0.17,0.11-0.23,0c-0.04-0.08-0.07-0.16-0.11-0.23c-0.85-2.02-1.72-4.04-2.57-6.05  C33.57,9,33.38,8.57,33.2,8.13c-0.08-0.18-0.2-0.26-0.39-0.26c-0.07,0-0.14,0-0.2,0c-1.32,0-2.64,0-3.95,0c-0.1,0-0.2,0.01-0.3,0.03  c-0.02,0-0.05,0.05-0.05,0.07c0,0.02,0.03,0.06,0.06,0.07c0.23,0.04,0.47,0.07,0.69,0.12c0.48,0.12,0.76,0.42,0.8,0.92  c0.02,0.25,0.03,0.5,0.03,0.75c0,2.7,0,5.4,0,8.09c0,0.14,0,0.27,0,0.4c-0.04,0.8-0.39,1.24-1.15,1.43  c-0.12,0.03-0.22,0.05-0.34,0.09c-0.05,0.01-0.09,0.05-0.08,0.11s0.07,0.07,0.12,0.07c0.1,0,0.2,0.01,0.3,0.01c1,0,2,0,3,0  c0.1,0,0.2,0,0.3-0.01c0.05,0,0.11-0.02,0.11-0.08c0-0.06-0.03-0.1-0.08-0.11c-0.16-0.04-0.33-0.07-0.49-0.11  c-0.65-0.17-1.03-0.6-1.1-1.27c-0.02-0.2-0.01-0.4-0.01-0.6C30.46,16.52,30.46,15.19,30.47,13.87L30.47,13.87z M34.44,43.34  c0.83,0,1.67,0,2.5,0c0.15,0,0.3,0,0.45-0.02c0.05,0,0.1-0.04,0.11-0.1c0-0.08-0.05-0.12-0.13-0.13c-0.12-0.01-0.23,0-0.35-0.02  c-0.15-0.02-0.3-0.04-0.44-0.08c-0.44-0.15-0.7-0.45-0.71-0.93c0-0.15-0.01-0.3-0.01-0.45c0-1.19,0-2.38,0-3.57  c0-0.59,0.03-0.62,0.62-0.62c1.05,0,2.11,0,3.15,0c0.12,0,0.23,0,0.35,0.02c0.15,0.02,0.25,0.1,0.27,0.25  c0.02,0.14,0.03,0.26,0.03,0.4c0,1.05,0,2.12,0,3.17c0,0.32-0.05,0.63-0.08,0.95c-0.04,0.36-0.25,0.61-0.58,0.76  c-0.17,0.08-0.35,0.12-0.53,0.13c-0.14,0-0.26,0.01-0.4,0.03c-0.05,0-0.11,0.05-0.1,0.1c0,0.04,0.05,0.1,0.08,0.11  c0.13,0.02,0.26,0.03,0.4,0.03c1.72,0,3.44,0,5.15,0c0.09,0,0.16,0,0.25,0c0.15,0,0.24-0.07,0.22-0.14  c-0.03-0.11-0.12-0.11-0.2-0.11c-0.2-0.02-0.4,0-0.59-0.07c-0.42-0.13-0.7-0.38-0.76-0.84c-0.03-0.21-0.06-0.43-0.06-0.65  c0-2.87,0-5.73,0-8.6c0-0.17,0-0.33,0.03-0.5c0.1-0.65,0.43-0.97,1.08-1.05c0.16-0.02,0.38,0.08,0.5-0.13  c-0.13-0.23-0.35-0.13-0.53-0.14c-1.67,0-3.34,0-5.01,0c-0.1,0-0.2,0-0.3,0c-0.1,0-0.2,0-0.26,0.11c-0.03,0.07,0.08,0.14,0.26,0.14  c0.3,0,0.59,0.06,0.86,0.2c0.26,0.15,0.44,0.36,0.47,0.67c0.03,0.33,0.08,0.66,0.08,1c0.01,0.92,0,1.84,0,2.77  c0,0.12,0,0.23-0.01,0.35c-0.03,0.24-0.11,0.32-0.34,0.35c-0.09,0-0.16,0-0.25,0c-1.09,0-2.16,0-3.25,0c-0.52,0-0.56-0.05-0.56-0.59  c0-1.14,0-2.28,0-3.42c0-0.14,0-0.27,0.02-0.4c0.06-0.44,0.3-0.73,0.73-0.87c0.17-0.06,0.36-0.08,0.54-0.09  c0.1,0,0.19-0.03,0.29-0.05c0.02,0,0.05-0.05,0.05-0.08c0-0.03-0.03-0.07-0.05-0.08c-0.14-0.07-0.29-0.05-0.44-0.05  c-1.7,0-3.41,0-5.1,0c-0.1,0-0.2,0-0.3,0c-0.05,0-0.1,0.01-0.15,0.03c-0.05,0.02-0.08,0.06-0.07,0.12c0,0.03,0.04,0.07,0.06,0.07  c0.16,0.02,0.33,0.03,0.49,0.06c0.65,0.12,1,0.44,1.05,1.09c0,0.12,0.01,0.23,0.01,0.35c0,2.93,0,5.86,0,8.79  c0,0.19-0.01,0.37-0.05,0.55c-0.1,0.52-0.44,0.82-0.95,0.89c-0.15,0.02-0.3,0.02-0.45,0.03c-0.11,0-0.18,0.08-0.16,0.14  c0.03,0.08,0.1,0.1,0.16,0.1c0.14,0.01,0.26,0.01,0.4,0.01C32.77,43.35,33.61,43.35,34.44,43.34L34.44,43.34z M15.83,20.02  c0.86,0,1.74,0,2.6,0c0.14,0,0.27,0.02,0.39-0.05c0.04-0.02,0.06-0.11,0.03-0.13c-0.04-0.03-0.08-0.07-0.13-0.08  c-0.58-0.11-1.03-0.46-1.44-0.87c-0.35-0.34-0.65-0.72-0.96-1.09c-1.31-1.63-2.6-3.27-3.9-4.9c-0.07-0.09-0.14-0.19-0.19-0.29  c-0.05-0.08-0.03-0.17,0.03-0.23c0.07-0.07,0.15-0.14,0.22-0.2c0.56-0.45,1.12-0.91,1.68-1.36c0.93-0.74,1.85-1.47,2.78-2.21  c0.3-0.24,0.64-0.42,1.04-0.48c0.05,0,0.1-0.02,0.15-0.04c0.07-0.02,0.13-0.06,0.11-0.14c0-0.06-0.06-0.08-0.11-0.08  c-0.14,0-0.26-0.02-0.4-0.02c-0.39,0-0.77,0-1.15,0c-0.74,0-1.47,0-2.2,0c-0.14,0-0.27,0-0.4,0c-0.07,0-0.15,0-0.16,0.08  c-0.02,0.09,0.07,0.1,0.13,0.12c0.12,0.03,0.23,0.05,0.34,0.07c0.08,0.02,0.16,0.02,0.24,0.05c0.49,0.15,0.67,0.58,0.41,1.02  c-0.07,0.12-0.16,0.22-0.24,0.31c-0.21,0.21-0.43,0.43-0.66,0.61c-1.33,1.09-2.67,2.17-4.01,3.26c-0.14,0.11-0.25,0.33-0.46,0.21  c-0.16-0.09-0.1-0.3-0.11-0.47c0-0.93,0-1.84,0-2.77c0-0.42,0.04-0.84,0.07-1.26c0.05-0.52,0.31-0.83,0.81-0.97  c0.15-0.04,0.29-0.07,0.44-0.12c0.02,0,0.04-0.06,0.04-0.08c0-0.03-0.04-0.06-0.06-0.07c-0.1-0.01-0.19-0.03-0.3-0.03  c-1.67,0-3.34,0-5.01,0c-0.1,0-0.19,0.01-0.3,0.03c-0.02,0-0.05,0.05-0.05,0.07c0,0.02,0.03,0.06,0.06,0.07  c0.23,0.04,0.47,0.07,0.69,0.13C6.25,8.25,6.52,8.51,6.6,8.96c0.05,0.26,0.05,0.54,0.05,0.8c0,2.77,0,5.53,0,8.3  c0,0.15,0,0.3,0,0.45c-0.02,0.17-0.04,0.33-0.08,0.5c-0.08,0.32-0.27,0.54-0.58,0.63c-0.17,0.06-0.36,0.09-0.53,0.14  c-0.13,0.04-0.27-0.02-0.37,0.11c0.1,0.18,0.26,0.11,0.4,0.11c1.65,0,3.3,0,4.96,0c0.16,0,0.33,0.06,0.47-0.08  c-0.09-0.22-0.31-0.14-0.47-0.2c-0.08-0.03-0.16-0.04-0.24-0.07c-0.37-0.15-0.61-0.4-0.66-0.81c-0.03-0.28-0.07-0.57-0.08-0.85  c0-0.98,0-1.98,0-2.96c0-0.1,0-0.2,0.02-0.3c0.05-0.26,0.24-0.41,0.48-0.47c0.17-0.04,0.24,0.15,0.34,0.25  c0.01,0.01,0.02,0.03,0.03,0.04c0.85,1.07,1.71,2.15,2.55,3.23c0.22,0.29,0.45,0.59,0.63,0.91c0.34,0.6,0.05,0.92-0.42,1.01  c-0.1,0.02-0.2,0.01-0.24,0.14c-0.02,0.08,0.09,0.14,0.27,0.15c0.14,0,0.26,0,0.4,0c0.77,0,1.53,0,2.3,0L15.83,20.02z M16.75,32.66  L16.75,32.66c0-0.49,0-0.98,0-1.45c0-0.14,0-0.26-0.02-0.4c0-0.07-0.05-0.14-0.13-0.13c-0.04,0-0.1,0.04-0.12,0.07  c-0.07,0.12-0.12,0.24-0.19,0.35c-0.2,0.28-0.47,0.43-0.82,0.33c-0.22-0.06-0.45-0.14-0.67-0.2c-0.32-0.11-0.63-0.22-0.94-0.33  c-0.9-0.29-1.83-0.38-2.77-0.25c-2.03,0.27-3.64,1.23-4.77,2.96c-0.98,1.5-1.29,3.14-0.94,4.89c0.23,1.18,0.77,2.2,1.63,3.06  c0.83,0.82,1.83,1.33,2.97,1.58c1.04,0.23,2.08,0.27,3.12,0.11c1.27-0.2,2.32-0.8,3.22-1.7c0.16-0.16,0.23-0.32,0.22-0.54  c0-0.1,0-0.2,0-0.3c0-0.05-0.02-0.11-0.08-0.11c-0.03,0-0.07,0.01-0.09,0.03c-0.2,0.2-0.41,0.4-0.61,0.59  c-1.04,0.98-2.25,1.46-3.69,1.36c-0.88-0.07-1.66-0.35-2.28-1c-0.4-0.42-0.68-0.91-0.87-1.45c-0.44-1.23-0.56-2.51-0.5-3.8  c0.04-0.8,0.19-1.56,0.45-2.31c0.25-0.78,0.72-1.39,1.35-1.89c0.74-0.59,1.58-0.88,2.51-0.81c1.45,0.12,2.54,0.82,3.26,2.11  c0.17,0.32,0.31,0.67,0.43,1.01c0.03,0.1,0.07,0.2,0.18,0.21c0.09,0.01,0.16-0.08,0.16-0.27c0-0.57,0-1.14,0-1.71L16.75,32.66z"></path>
<g>
	<path class="st0" d="M60.47,11.75v4.39l3.33-4.39h2.79l-3.68,4.63l4.18,5.36h-3.11l-3.52-4.81v4.81h-2.44v-9.98L60.47,11.75   L60.47,11.75z"></path>
	<path class="st0" d="M70.41,11.75l2.84,5.33l2.85-5.33h2.32v9.98h-2.34v-5.85l-2.02,3.77h-1.7l-2.02-3.77v5.85h-2.34v-9.98h2.38   H70.41z"></path>
	<path class="st0" d="M84.86,11.47c2.05,0,3.85,1.12,4.43,3.18l-2.38,0.54c-0.41-0.89-1.11-1.46-2.1-1.46   c-1.64,0-2.47,1.56-2.47,3.06c0,1.5,0.84,2.98,2.5,2.98c1.66,0,1.75-0.57,2.17-1.46l2.38,0.54c-0.57,2.07-2.46,3.18-4.55,3.18   c-2.09,0-5.03-2.25-5.03-5.21S81.85,11.47,84.86,11.47L84.86,11.47z"></path>
	<path class="st0" d="M93.02,11.75v3.74H97v-3.74h2.44v9.98H97v-4.08h-3.98v4.08h-2.44v-9.98H93.02z"></path>
	<path class="st0" d="M108.74,11.47c2.05,0,3.85,1.12,4.43,3.18l-2.38,0.54c-0.41-0.89-1.11-1.46-2.1-1.46   c-1.64,0-2.47,1.56-2.47,3.06c0,1.5,0.84,2.98,2.5,2.98s1.75-0.57,2.17-1.46l2.38,0.54c-0.57,2.07-2.46,3.18-4.55,3.18   c-2.09,0-5.03-2.25-5.03-5.21S105.73,11.47,108.74,11.47L108.74,11.47z"></path>
	<path class="st0" d="M118.09,14.03c2.22,0,3.95,1.66,3.95,3.95s-1.72,3.97-4.01,3.97c-2.29,0-3.95-1.65-3.95-3.94   S115.8,14.03,118.09,14.03L118.09,14.03z M116.41,17.99c0,0.35,0.07,0.67,0.22,0.96c0.26,0.57,0.82,0.93,1.43,0.93   c1.02,0,1.65-0.92,1.65-1.88s-0.07-0.69-0.21-0.98c-0.31-0.57-0.8-0.92-1.45-0.92C117.01,16.09,116.4,17,116.41,17.99L116.41,17.99   z"></path>
	<path class="st0" d="M123.21,11.21h2.28v10.52h-2.28V11.21z"></path>
	<path class="st0" d="M126.92,11.21h2.28v10.52h-2.28V11.21z"></path>
	<path class="st0" d="M130.38,17.96c0-2.14,1.54-3.94,3.77-3.94s3.73,1.72,3.73,4.05v0.51h-5.15c0.16,0.82,0.64,1.43,1.52,1.43   s1.02-0.24,1.4-0.73l2.09,0.55c-0.59,1.39-2.06,2.11-3.51,2.11C131.94,21.93,130.38,20.25,130.38,17.96L130.38,17.96z    M132.72,17.12h2.79c-0.13-0.77-0.53-1.37-1.37-1.37C133.31,15.75,132.87,16.35,132.72,17.12L132.72,17.12z"></path>
	<path class="st0" d="M142.22,14.03c0.86,0,1.65,0.35,2.15,1.07l0.06-0.86h2.1v6.51c0,2.29-1.54,3.88-3.89,3.88s-2.91-0.66-3.52-2.1   l2.24-0.48c0.31,0.47,0.77,0.69,1.32,0.69c1.02,0,1.58-0.74,1.58-1.75v-0.58c-0.53,0.67-1.33,1.04-2.18,1.04   c-1.93,0-3.28-1.81-3.28-3.67S140.18,14.04,142.22,14.03L142.22,14.03z M141.11,17.74c0,0.92,0.61,1.73,1.58,1.73   s1.58-0.79,1.58-1.73c0-0.94-0.61-1.72-1.58-1.72S141.11,16.81,141.11,17.74z"></path>
	<path class="st0" d="M147.71,17.96c0-2.14,1.54-3.94,3.77-3.94c2.22,0,3.73,1.72,3.73,4.05v0.51h-5.15   c0.16,0.82,0.64,1.43,1.52,1.43s1.02-0.24,1.4-0.73l2.09,0.55c-0.59,1.39-2.06,2.11-3.51,2.11   C149.27,21.93,147.71,20.25,147.71,17.96L147.71,17.96z M150.04,17.12h2.79c-0.13-0.77-0.53-1.37-1.37-1.37   C150.63,15.75,150.2,16.35,150.04,17.12L150.04,17.12z"></path>
	<path class="st0" d="M61.65,30.91c2.22,0,3.95,1.66,3.95,3.95c0,2.29-1.72,3.97-4.01,3.97c-2.29,0-3.95-1.65-3.95-3.94   C57.64,32.6,59.36,30.91,61.65,30.91z M59.97,34.87c0,0.35,0.07,0.67,0.22,0.96c0.26,0.57,0.82,0.93,1.43,0.93   c1.02,0,1.65-0.92,1.65-1.88s-0.07-0.69-0.21-0.98c-0.31-0.57-0.8-0.92-1.45-0.92C60.57,32.97,59.96,33.88,59.97,34.87L59.97,34.87   z"></path>
	<path class="st0" d="M67.31,31.11v-0.39c0-1.69,1.17-2.84,2.9-2.84c1.73,0,1.07,0.12,1.54,0.37l-0.41,1.71   c-0.21-0.12-0.51-0.2-0.76-0.2c-0.69,0-0.99,0.44-0.99,1.09v0.26h1.83v1.85H69.6v5.64h-2.28v-5.64h-1.23v-1.85L67.31,31.11   L67.31,31.11z"></path>
	<path class="st0" d="M77.52,28.63l4.28,6.1v-6.1h2.34v9.98h-2.09l-4.28-6.1v6.1h-2.34v-9.98H77.52z"></path>
	<path class="st0" d="M87.99,31.11v4.16c0,0.76,0.34,1.47,1.19,1.47c0.85,0,1.19-0.69,1.19-1.47v-4.16h2.28v4.12   c0,2.1-1.29,3.59-3.48,3.59c-2.19,0-3.45-1.43-3.45-3.59v-4.12H87.99L87.99,31.11z"></path>
	<path class="st0" d="M96.17,31.11l0.09,1.2c0.35-0.79,0.97-1.3,1.84-1.3s0.47,0.03,0.69,0.13l-0.22,2.28   c-0.21-0.1-0.42-0.1-0.64-0.1c-1.12,0-1.57,0.66-1.57,1.73v3.56h-2.28v-7.5H96.17z"></path>
	<path class="st0" d="M101.42,36.38c0.19,0.48,0.69,0.72,1.17,0.72c0.49,0,0.92-0.14,0.92-0.63c0-0.5-0.09-0.32-0.25-0.42   c-0.18-0.1-0.48-0.19-0.89-0.25l-0.34-0.06c-1.26-0.22-2.52-0.87-2.52-2.33c0-1.46,1.48-2.49,3.01-2.49s2.69,0.6,3.08,2.01   l-2.09,0.38c-0.09-0.21-0.21-0.37-0.38-0.49c-0.18-0.12-0.38-0.17-0.61-0.17c-0.38,0-0.82,0.14-0.82,0.59s0.09,0.28,0.24,0.38   c0.16,0.1,0.45,0.19,0.88,0.25l0.34,0.06c1.29,0.22,2.56,0.85,2.56,2.33s-1.55,2.57-3.13,2.57c-1.58,0-2.82-0.63-3.26-2.07   l2.1-0.38L101.42,36.38z"></path>
	<path class="st0" d="M106.69,29.14c0-0.24,0.06-0.45,0.16-0.63c0.21-0.39,0.66-0.61,1.1-0.61c0.44,0,0.88,0.22,1.12,0.61   c0.1,0.19,0.16,0.39,0.16,0.63s-0.06,0.45-0.16,0.63c-0.24,0.39-0.66,0.61-1.12,0.61c-0.46,0-0.88-0.22-1.1-0.61   C106.74,29.59,106.69,29.39,106.69,29.14z M106.82,31.11h2.28v7.5h-2.28V31.11z"></path>
	<path class="st0" d="M112.63,31.11l0.07,0.98c0.45-0.79,1.27-1.2,2.17-1.2c1.8,0,2.65,1.49,2.65,3.18v4.52h-2.28v-4.2   c0-0.44-0.1-0.79-0.29-1.05c-0.21-0.25-0.49-0.38-0.84-0.38c-0.77,0-1.29,0.63-1.29,1.39v4.25h-2.28v-7.5L112.63,31.11   L112.63,31.11z"></path>
	<path class="st0" d="M122.12,30.91c0.86,0,1.65,0.35,2.15,1.07l0.06-0.86h2.1v6.51c0,2.29-1.54,3.88-3.89,3.88   c-2.35,0-2.91-0.66-3.52-2.1l2.24-0.48c0.31,0.47,0.77,0.69,1.32,0.69c1.02,0,1.58-0.74,1.58-1.75v-0.58   c-0.53,0.67-1.33,1.04-2.18,1.04c-1.93,0-3.28-1.81-3.28-3.67C118.7,32.84,120.09,30.92,122.12,30.91L122.12,30.91z M121.02,34.61   c0,0.92,0.61,1.73,1.58,1.73c0.97,0,1.58-0.79,1.58-1.73c0-0.94-0.61-1.72-1.58-1.72C121.63,32.9,121.02,33.69,121.02,34.61z"></path>
</g>
<g>
</g>
<g>
</g>
<g>
</g>
<g>
</g>
<g>
</g>
<g>
</g>
</svg>
